<svg version="1.1" id="Layer_1" xmlns="http://www.w3.org/2000/svg" xmlns:xlink="http://www.w3.org/1999/xlink" x="0" y="0" viewBox="0 0 453.9 88.8" xml:space="preserve"><style>.st0{clip-path:url(#SVGID_2_);fill:#fff}</style><defs><path id="SVGID_1_" d="M0 0h453.9v88.8H0z"/></defs><clipPath id="SVGID_2_"><use xlink:href="#SVGID_1_" overflow="visible"/></clipPath><path class="st0" d="M0 15.1C0 8.6 3.9.1 14.4.1 24 .1 28.8 8.6 28.8 15v5.8c0 1-1.5 1-4.4 1-2.4 0-4 0-4-1.1v-5.9c0-4.2-3.2-6.8-5.9-6.8-3.5 0-6.2 3.5-6.2 6.7v7c0 4.8 4.9 11.3 9.7 18 5.6 7.7 11.5 16.6 11.5 26.1V74c0 8.6-6.5 14.7-14.7 14.7C6.6 88.6.1 84 .1 74v-7.1c0-1.4.9-1.6 4.2-1.6 3 0 4.3.1 4.3 1.4v7c0 3.2 1.6 6.6 6.2 6.6 5.4 0 6.5-4 6.5-7v-7.7c0-6.7-4.9-13.8-10-20.9C5.9 37.1 0 29.1 0 21.6v-6.5zM40.8 7.5c-.6-.3-1.6-.3-2.7-.3h-4.7c-1.9 0-2.3-.6-2.3-3.4S31.4 0 32.9 0H59c1.5 0 1.6 1.3 1.6 3.8 0 2.9-.1 3.4-1.5 3.4-1.5 0-3.3-.1-5.4 0-1 0-2 0-2.7.3-1.1.9-.9 3-.9 4.7v75.1c0 1.1-1.9 1.3-4.6 1.3-2.3 0-3.9 0-3.9-1.3V12.2c0-1.6.3-3.8-.8-4.7M93.9 72.8c0 8.2-3.4 15.8-14.7 15.8-10.5 0-14.7-7.6-14.7-15.8V15.5C64.6 6 71 .1 79.3.1S94 6.7 94 15.5v57.3zM72.8 15.5v56.9c0 3.7.8 7.7 6.5 7.7 5.1 0 6.3-4.2 6.3-7.7V15.5c0-3.5-2.7-7.6-6.3-7.6-3.8 0-6.5 4.1-6.5 7.6M111.1 54.6v32c0 2-.9 2-4.3 2-3.3 0-3.8 0-3.8-1.8V4c0-1.3.1-2.4.9-3.2 1-.9 1.9-.8 2.9-.8h7.6c4.3 0 9.5 1 13.3 4.4 3.8 3.5 4.7 7.8 4.7 13.2V34c0 2.9 0 7.1-4.6 12.4-4.3 4.8-10.4 5.4-14.3 5.4-1.5.1-2.4 1-2.4 2.8m4.5-46.2c-1.5 0-3.5 0-4 .9-.4.8-.4 1.4-.4 2.2v28.2c0 1.4-.3 3 .9 3.7.6.4 1.8.3 2.9.3 1.5 0 4.3-.3 6.6-2.7 2.5-2.8 2.5-4 2.5-6.7V17.7c0-2.9-.5-5.1-2.7-7.3-1.3-1.3-3-2-5.8-2M161 7.5c-.6-.3-1.6-.3-2.7-.3h-4.7c-1.9 0-2.3-.6-2.3-3.4s.3-3.8 1.8-3.8h26.1c1.5 0 1.6 1.3 1.6 3.8 0 2.9-.1 3.4-1.5 3.4-1.5 0-3.3-.1-5.4 0-1 0-2 0-2.7.3-1.1.9-.9 3-.9 4.7v75.1c0 1.1-1.9 1.3-4.6 1.3-2.3 0-3.9 0-3.9-1.3V12.2c.1-1.6.3-3.8-.8-4.7M186 86.7V2.5c0-1.6.5-2.3 3.8-2.3 3.5 0 4.4.5 4.4 2.4v29.9c0 2.2-.4 4.7 1.5 5.7 1 .4 9.2.8 10.5 0 1.1-.8.9-3.4.9-5.3V2.1c0-2.3 1-1.9 4-1.9 3.5 0 4.2 0 4.2 2V86c0 2.3.1 2.5-4 2.5-3.8 0-4.2-.1-4.2-2.5V51.4c0-1.5.1-4-.8-4.3-1.4-.8-10.9-.3-11.4.1-1.1.8-.9 2.9-.9 4.6v34.7c0 2-.8 2-4.3 2-3.2 0-3.7 0-3.7-1.8M225.8 83.8v-80c0-1.6.1-1.8.9-2.8.8-1 1.6-1 2.9-1h21c1.5 0 1.5 1.5 1.5 3.8 0 2.4 0 3.4-1.6 3.4h-12.6c-1 0-2.5.1-2.9.6-.6.9-.6.8-.6 2.4v24c0 1.1-.3 2.5.8 3.3.9.6 1.8.5 2.8.5h5.9c1.5 0 1.8 1 1.8 3.7 0 2.5-.1 3.5-1.8 3.5h-5.7c-1.3 0-2.7.1-3.2.4-1.1.8-.9 2-.9 3.7v27.2c0 1.6 0 4 .6 4.4.6.4 2.4.5 3.8.5h12c1.5 0 1.6.8 1.6 3.5 0 2.8-.1 3.5-1.5 3.5h-19c-2 0-4.2.3-5.1-.5-.9-.7-.7-2.6-.7-4.1M287 62.5c2.2-21.8 4-40.2 6.1-60.1.3-2.2 1.3-2 3.5-2 3.5 0 4.8.3 4.7 1.6-3.8 31.1-6.7 54.1-10.5 84.9-.3 1.8-1.6 1.9-4.2 1.9-3.3 0-4.8 0-5.1-2.2-3.4-28.5-6.6-53.8-10.2-84.9-.1-1.5.5-1.5 4-1.5 3.7 0 4.4.4 4.6 2 2 22.1 3.5 39.3 5.4 60.3 0 .4.1 1.3.8 1.3.8.1.9-.8.9-1.3M310.7 88.5c-3.4 0-3.8 0-3.8-1.8V2.1c0-1.6.8-1.9 3.8-1.9 3.4 0 4.3.1 4.3 2v84.3c0 1.9-.3 2-4.3 2M333.3 86.6c0 2-.5 2-4.3 2-2.9 0-3.8 0-3.8-1.8V4c0-1.3.1-2.7.9-3.4 1-.9 1.9-.5 2.9-.5h7.2c4 0 9.5 1 13.3 4.4 3.8 3.5 4.7 8.7 4.7 13.2v11.4c0 3 .1 5.2-1.4 8-1.9 3.5-5.9 4.6-5.9 5.1s4.2 1.3 6.1 5.1c1.5 3 1.4 4.9 1.4 8v31.5c0 2-.9 2-4.3 2-2.9 0-3.8.1-3.8-1.8V54.7c0-5.2-3.4-8.3-6.2-8.3-5.9 0-6.7-.1-6.7 1.9v38.3zm3.3-78.2c-1.1 0-2.3 0-2.8.9-.4.8-.4 1.4-.4 2.2v23.7c0 1.4-.3 2.8.8 3.5.8.6 1.6.5 2.3.5 1.4 0 4.7-.4 7-2.8 2.5-2.8 2.5-4.9 2.5-6.7v-12c0-2.9-.5-5.1-2.7-7.3-1.4-1.3-2.1-2-6.7-2M393.1 74c0 8-4.4 14.7-14.7 14.7-10.2 0-14.7-8.3-14.7-14.5V2c0-1.6 1.4-1.9 4-1.9 2.7 0 4.2.5 4.2 1.9v71.5c0 3.4 1.9 6.7 6.5 6.7 4.3 0 6.5-3.2 6.5-6.6v-72c0-1.1.8-1.5 3.8-1.5 3.2 0 4.4.3 4.4 1.4V74zM399.9 15.1c0-6.6 3.9-15.1 14.4-15.1 9.6 0 14.4 8.5 14.4 14.9v5.8c0 1-1.5 1-4.4 1-2.4 0-4 0-4-1.1v-5.9c0-4.2-3.2-6.8-5.9-6.8-3.5 0-6.2 3.5-6.2 6.7v7c0 4.8 4.9 11.3 9.7 18 5.6 7.7 11.5 16.6 11.5 26.1V74c0 8.6-6.5 14.7-14.7 14.7C406.5 88.6 400 84 400 74v-7.1c0-1.4.9-1.6 4.2-1.6 3 0 4.3.1 4.3 1.4v7c0 3.2 1.6 6.6 6.2 6.6 5.4 0 6.5-4 6.5-7v-7.7c0-6.7-4.9-13.8-10-20.9-5.3-7.5-11.3-15.6-11.3-23v-6.6z"/><path d="M453.9 80.7c0 4.5-3.6 8.1-8.1 8.1s-8.1-3.6-8.1-8.1 3.6-8.1 8.1-8.1c4.5.1 8.1 3.7 8.1 8.1" clip-path="url(#SVGID_2_)" fill="red"/></svg>