<?xml version="1.0" encoding="utf-8"?>
<!-- Generator: Adobe Illustrator 21.0.0, SVG Export Plug-In . SVG Version: 6.00 Build 0)  -->
<svg version="1.1" id="Layer_1" xmlns="http://www.w3.org/2000/svg" xmlns:xlink="http://www.w3.org/1999/xlink" x="0px" y="0px"
	 viewBox="0 0 453.9 88.8" style="enable-background:new 0 0 453.9 88.8;" xml:space="preserve">
<style type="text/css">
	.st0{clip-path:url(#SVGID_2_);fill:#fff}
	.st1{clip-path:url(#SVGID_2_);fill:#FF0000;}
</style>
<g>
	<defs>
		<rect id="SVGID_1_" y="0" width="453.9" height="88.8"/>
	</defs>
	<clipPath id="SVGID_2_">
		<use xlink:href="#SVGID_1_"  style="overflow:visible;"/>
	</clipPath>
	<path class="st0" d="M0,15.1C0,8.6,3.9,0.1,14.4,0.1C24,0.1,28.8,8.6,28.8,15v5.8c0,1-1.5,1-4.4,1c-2.4,0-4,0-4-1.1v-5.9
		c0-4.2-3.2-6.8-5.9-6.8c-3.5,0-6.2,3.5-6.2,6.7v7c0,4.8,4.9,11.3,9.7,18c5.6,7.7,11.5,16.6,11.5,26.1V74c0,8.6-6.5,14.7-14.7,14.7
		C6.6,88.6,0.1,84,0.1,74v-7.1c0-1.4,0.9-1.6,4.2-1.6c3,0,4.3,0.1,4.3,1.4v7c0,3.2,1.6,6.6,6.2,6.6c5.4,0,6.5-4,6.5-7v-7.7
		c0-6.7-4.9-13.8-10-20.9C5.9,37.1,0,29.1,0,21.6V15.1z"/>
	<path class="st0" d="M40.8,7.5c-0.6-0.3-1.6-0.3-2.7-0.3h-4.7c-1.9,0-2.3-0.6-2.3-3.4c0-2.8,0.3-3.8,1.8-3.8H59
		c1.5,0,1.6,1.3,1.6,3.8c0,2.9-0.1,3.4-1.5,3.4c-1.5,0-3.3-0.1-5.4,0c-1,0-2,0-2.7,0.3c-1.1,0.9-0.9,3-0.9,4.7v75.1
		c0,1.1-1.9,1.3-4.6,1.3c-2.3,0-3.9,0-3.9-1.3V12.2C41.6,10.6,41.9,8.4,40.8,7.5"/>
	<path class="st0" d="M93.9,72.8c0,8.2-3.4,15.8-14.7,15.8c-10.5,0-14.7-7.6-14.7-15.8V15.5C64.6,6,71,0.1,79.3,0.1
		c8.3,0,14.7,6.6,14.7,15.4V72.8z M72.8,15.5v56.9c0,3.7,0.8,7.7,6.5,7.7c5.1,0,6.3-4.2,6.3-7.7V15.5c0-3.5-2.7-7.6-6.3-7.6
		C75.5,7.9,72.8,12,72.8,15.5"/>
	<path class="st0" d="M111.1,54.6v32c0,2-0.9,2-4.3,2c-3.3,0-3.8,0-3.8-1.8V4c0-1.3,0.1-2.4,0.9-3.2c1-0.9,1.9-0.8,2.9-0.8h7.6
		c4.3,0,9.5,1,13.3,4.4c3.8,3.5,4.7,7.8,4.7,13.2v16.4c0,2.9,0,7.1-4.6,12.4c-4.3,4.8-10.4,5.4-14.3,5.4
		C112,51.9,111.1,52.8,111.1,54.6 M115.6,8.4c-1.5,0-3.5,0-4,0.9c-0.4,0.8-0.4,1.4-0.4,2.2v28.2c0,1.4-0.3,3,0.9,3.7
		c0.6,0.4,1.8,0.3,2.9,0.3c1.5,0,4.3-0.3,6.6-2.7c2.5-2.8,2.5-4,2.5-6.7V17.7c0-2.9-0.5-5.1-2.7-7.3C120.1,9.1,118.4,8.4,115.6,8.4"
		/>
	<path class="st0" d="M161,7.5c-0.6-0.3-1.6-0.3-2.7-0.3h-4.7c-1.9,0-2.3-0.6-2.3-3.4c0-2.8,0.3-3.8,1.8-3.8h26.1
		c1.5,0,1.6,1.3,1.6,3.8c0,2.9-0.1,3.4-1.5,3.4c-1.5,0-3.3-0.1-5.4,0c-1,0-2,0-2.7,0.3c-1.1,0.9-0.9,3-0.9,4.7v75.1
		c0,1.1-1.9,1.3-4.6,1.3c-2.3,0-3.9,0-3.9-1.3V12.2C161.9,10.6,162.1,8.4,161,7.5"/>
	<path class="st0" d="M186,86.7V2.5c0-1.6,0.5-2.3,3.8-2.3c3.5,0,4.4,0.5,4.4,2.4v29.9c0,2.2-0.4,4.7,1.5,5.7c1,0.4,9.2,0.8,10.5,0
		c1.1-0.8,0.9-3.4,0.9-5.3V2.1c0-2.3,1-1.9,4-1.9c3.5,0,4.2,0,4.2,2V86c0,2.3,0.1,2.5-4,2.5c-3.8,0-4.2-0.1-4.2-2.5V51.4
		c0-1.5,0.1-4-0.8-4.3c-1.4-0.8-10.9-0.3-11.4,0.1c-1.1,0.8-0.9,2.9-0.9,4.6v34.7c0,2-0.8,2-4.3,2C186.5,88.5,186,88.5,186,86.7"/>
	<path class="st0" d="M225.8,83.8v-80c0-1.6,0.1-1.8,0.9-2.8c0.8-1,1.6-1,2.9-1h21c1.5,0,1.5,1.5,1.5,3.8c0,2.4,0,3.4-1.6,3.4h-12.6
		c-1,0-2.5,0.1-2.9,0.6c-0.6,0.9-0.6,0.8-0.6,2.4v24c0,1.1-0.3,2.5,0.8,3.3c0.9,0.6,1.8,0.5,2.8,0.5h5.9c1.5,0,1.8,1,1.8,3.7
		c0,2.5-0.1,3.5-1.8,3.5h-5.7c-1.3,0-2.7,0.1-3.2,0.4c-1.1,0.8-0.9,2-0.9,3.7v27.2c0,1.6,0,4,0.6,4.4c0.6,0.4,2.4,0.5,3.8,0.5h12
		c1.5,0,1.6,0.8,1.6,3.5c0,2.8-0.1,3.5-1.5,3.5h-19c-2,0-4.2,0.3-5.1-0.5C225.6,87.2,225.8,85.3,225.8,83.8"/>
	<path class="st0" d="M287,62.5c2.2-21.8,4-40.2,6.1-60.1c0.3-2.2,1.3-2,3.5-2c3.5,0,4.8,0.3,4.7,1.6c-3.8,31.1-6.7,54.1-10.5,84.9
		c-0.3,1.8-1.6,1.9-4.2,1.9c-3.3,0-4.8,0-5.1-2.2c-3.4-28.5-6.6-53.8-10.2-84.9c-0.1-1.5,0.5-1.5,4-1.5c3.7,0,4.4,0.4,4.6,2
		c2,22.1,3.5,39.3,5.4,60.3c0,0.4,0.1,1.3,0.8,1.3C286.9,63.9,287,63,287,62.5"/>
	<path class="st0" d="M310.7,88.5c-3.4,0-3.8,0-3.8-1.8V2.1c0-1.6,0.8-1.9,3.8-1.9c3.4,0,4.3,0.1,4.3,2v84.3
		C315,88.4,314.7,88.5,310.7,88.5"/>
	<path class="st0" d="M333.3,86.6c0,2-0.5,2-4.3,2c-2.9,0-3.8,0-3.8-1.8V4c0-1.3,0.1-2.7,0.9-3.4c1-0.9,1.9-0.5,2.9-0.5h7.2
		c4,0,9.5,1,13.3,4.4c3.8,3.5,4.7,8.7,4.7,13.2v11.4c0,3,0.1,5.2-1.4,8c-1.9,3.5-5.9,4.6-5.9,5.1c0,0.5,4.2,1.3,6.1,5.1
		c1.5,3,1.4,4.9,1.4,8v31.5c0,2-0.9,2-4.3,2c-2.9,0-3.8,0.1-3.8-1.8V54.7c0-5.2-3.4-8.3-6.2-8.3c-5.9,0-6.7-0.1-6.7,1.9V86.6z
		 M336.6,8.4c-1.1,0-2.3,0-2.8,0.9c-0.4,0.8-0.4,1.4-0.4,2.2v23.7c0,1.4-0.3,2.8,0.8,3.5c0.8,0.6,1.6,0.5,2.3,0.5
		c1.4,0,4.7-0.4,7-2.8c2.5-2.8,2.5-4.9,2.5-6.7v-12c0-2.9-0.5-5.1-2.7-7.3C341.9,9.1,341.2,8.4,336.6,8.4"/>
	<path class="st0" d="M393.1,74c0,8-4.4,14.7-14.7,14.7c-10.2,0-14.7-8.3-14.7-14.5V2c0-1.6,1.4-1.9,4-1.9c2.7,0,4.2,0.5,4.2,1.9
		v71.5c0,3.4,1.9,6.7,6.5,6.7c4.3,0,6.5-3.2,6.5-6.6v-72c0-1.1,0.8-1.5,3.8-1.5c3.2,0,4.4,0.3,4.4,1.4V74z"/>
	<path class="st0" d="M399.9,15.1c0-6.6,3.9-15.1,14.4-15.1c9.6,0,14.4,8.5,14.4,14.9v5.8c0,1-1.5,1-4.4,1c-2.4,0-4,0-4-1.1v-5.9
		c0-4.2-3.2-6.8-5.9-6.8c-3.5,0-6.2,3.5-6.2,6.7v7c0,4.8,4.9,11.3,9.7,18c5.6,7.7,11.5,16.6,11.5,26.1V74c0,8.6-6.5,14.7-14.7,14.7
		C406.5,88.6,400,84,400,74v-7.1c0-1.4,0.9-1.6,4.2-1.6c3,0,4.3,0.1,4.3,1.4v7c0,3.2,1.6,6.6,6.2,6.6c5.4,0,6.5-4,6.5-7v-7.7
		c0-6.7-4.9-13.8-10-20.9c-5.3-7.5-11.3-15.6-11.3-23V15.1z"/>
	<path class="st1" d="M453.9,80.7c0,4.5-3.6,8.1-8.1,8.1c-4.5,0-8.1-3.6-8.1-8.1c0-4.5,3.6-8.1,8.1-8.1
		C450.3,72.7,453.9,76.3,453.9,80.7"/>
</g>
</svg>
